%TF.GenerationSoftware,KiCad,Pcbnew,9.0.4*%
%TF.CreationDate,2026-01-27T05:17:12+01:00*%
%TF.ProjectId,weather station,77656174-6865-4722-9073-746174696f6e,rev?*%
%TF.SameCoordinates,Original*%
%TF.FileFunction,Copper,L1,Top*%
%TF.FilePolarity,Positive*%
%FSLAX46Y46*%
G04 Gerber Fmt 4.6, Leading zero omitted, Abs format (unit mm)*
G04 Created by KiCad (PCBNEW 9.0.4) date 2026-01-27 05:17:12*
%MOMM*%
%LPD*%
G01*
G04 APERTURE LIST*
G04 Aperture macros list*
%AMRoundRect*
0 Rectangle with rounded corners*
0 $1 Rounding radius*
0 $2 $3 $4 $5 $6 $7 $8 $9 X,Y pos of 4 corners*
0 Add a 4 corners polygon primitive as box body*
4,1,4,$2,$3,$4,$5,$6,$7,$8,$9,$2,$3,0*
0 Add four circle primitives for the rounded corners*
1,1,$1+$1,$2,$3*
1,1,$1+$1,$4,$5*
1,1,$1+$1,$6,$7*
1,1,$1+$1,$8,$9*
0 Add four rect primitives between the rounded corners*
20,1,$1+$1,$2,$3,$4,$5,0*
20,1,$1+$1,$4,$5,$6,$7,0*
20,1,$1+$1,$6,$7,$8,$9,0*
20,1,$1+$1,$8,$9,$2,$3,0*%
%AMFreePoly0*
4,1,9,5.362500,-0.866500,1.237500,-0.866500,1.237500,-0.450000,-1.237500,-0.450000,-1.237500,0.450000,1.237500,0.450000,1.237500,0.866500,5.362500,0.866500,5.362500,-0.866500,5.362500,-0.866500,$1*%
G04 Aperture macros list end*
%TA.AperFunction,ComponentPad*%
%ADD10C,1.600000*%
%TD*%
%TA.AperFunction,ComponentPad*%
%ADD11C,1.400000*%
%TD*%
%TA.AperFunction,SMDPad,CuDef*%
%ADD12RoundRect,0.150000X-0.825000X-0.150000X0.825000X-0.150000X0.825000X0.150000X-0.825000X0.150000X0*%
%TD*%
%TA.AperFunction,SMDPad,CuDef*%
%ADD13R,1.500000X2.200000*%
%TD*%
%TA.AperFunction,SMDPad,CuDef*%
%ADD14RoundRect,0.225000X0.225000X-0.925000X0.225000X0.925000X-0.225000X0.925000X-0.225000X-0.925000X0*%
%TD*%
%TA.AperFunction,SMDPad,CuDef*%
%ADD15FreePoly0,90.000000*%
%TD*%
%TA.AperFunction,ComponentPad*%
%ADD16R,1.350000X1.350000*%
%TD*%
%TA.AperFunction,ComponentPad*%
%ADD17C,1.350000*%
%TD*%
%TA.AperFunction,ComponentPad*%
%ADD18R,1.050000X1.500000*%
%TD*%
%TA.AperFunction,ComponentPad*%
%ADD19O,1.050000X1.500000*%
%TD*%
%TA.AperFunction,ComponentPad*%
%ADD20R,1.600000X1.600000*%
%TD*%
%TA.AperFunction,ComponentPad*%
%ADD21O,1.600000X1.600000*%
%TD*%
%TA.AperFunction,ComponentPad*%
%ADD22O,1.600000X1.200000*%
%TD*%
%TA.AperFunction,ComponentPad*%
%ADD23C,1.200000*%
%TD*%
%TA.AperFunction,ComponentPad*%
%ADD24R,1.800000X1.800000*%
%TD*%
%TA.AperFunction,ComponentPad*%
%ADD25C,1.800000*%
%TD*%
%TA.AperFunction,ComponentPad*%
%ADD26R,0.850000X0.850000*%
%TD*%
%TA.AperFunction,ComponentPad*%
%ADD27C,0.850000*%
%TD*%
%TA.AperFunction,ComponentPad*%
%ADD28C,2.050000*%
%TD*%
%TA.AperFunction,ComponentPad*%
%ADD29C,2.250000*%
%TD*%
%TA.AperFunction,ComponentPad*%
%ADD30R,1.500000X1.500000*%
%TD*%
%TA.AperFunction,ComponentPad*%
%ADD31C,1.500000*%
%TD*%
%TA.AperFunction,ComponentPad*%
%ADD32RoundRect,0.625000X-0.625000X-0.625000X0.625000X-0.625000X0.625000X0.625000X-0.625000X0.625000X0*%
%TD*%
%TA.AperFunction,ComponentPad*%
%ADD33C,2.500000*%
%TD*%
%TA.AperFunction,ComponentPad*%
%ADD34RoundRect,0.250000X-0.550000X-0.550000X0.550000X-0.550000X0.550000X0.550000X-0.550000X0.550000X0*%
%TD*%
%TA.AperFunction,Conductor*%
%ADD35C,0.200000*%
%TD*%
G04 APERTURE END LIST*
D10*
%TO.P,C5,1*%
%TO.N,Net-(J6-Pin_1)*%
X80520000Y-62600000D03*
%TO.P,C5,2*%
%TO.N,GND*%
X83020000Y-62600000D03*
%TD*%
D11*
%TO.P,R7,1*%
%TO.N,A+*%
X80420000Y-38500000D03*
%TO.P,R7,2*%
%TO.N,B-*%
X85500000Y-38500000D03*
%TD*%
D12*
%TO.P,U2,1,RO*%
%TO.N,Net-(A1-D8)*%
X96515000Y-34625000D03*
%TO.P,U2,2,~{RE}*%
%TO.N,Net-(U2-DE)*%
X96515000Y-35895000D03*
%TO.P,U2,3,DE*%
X96515000Y-37165000D03*
%TO.P,U2,4,DI*%
%TO.N,Net-(A1-D9)*%
X96515000Y-38435000D03*
%TO.P,U2,5,GND*%
%TO.N,GND*%
X101465000Y-38435000D03*
%TO.P,U2,6,A*%
%TO.N,A+*%
X101465000Y-37165000D03*
%TO.P,U2,7,B*%
%TO.N,B-*%
X101465000Y-35895000D03*
%TO.P,U2,8,VCC*%
%TO.N,+12V*%
X101465000Y-34625000D03*
%TD*%
D13*
%TO.P,L1,1,1*%
%TO.N,Net-(J6-Pin_1)*%
X96290000Y-28750000D03*
%TO.P,L1,2,2*%
%TO.N,+12V*%
X102690000Y-28750000D03*
%TD*%
D14*
%TO.P,Q1,1,E*%
%TO.N,Net-(J6-Pin_1)*%
X89500000Y-29450000D03*
D15*
%TO.P,Q1,2,B*%
%TO.N,Net-(Q1-B)*%
X91000000Y-29362500D03*
D14*
%TO.P,Q1,3,C*%
%TO.N,Net-(J6-Pin_1)*%
X92500000Y-29450000D03*
%TD*%
D16*
%TO.P,BT1,1,+*%
%TO.N,+12V*%
X103500000Y-66100000D03*
D17*
%TO.P,BT1,2,-*%
%TO.N,GND*%
X103500000Y-68100000D03*
%TD*%
D11*
%TO.P,R2,1*%
%TO.N,Net-(D1-K)*%
X80420000Y-25900000D03*
%TO.P,R2,2*%
%TO.N,GND*%
X85500000Y-25900000D03*
%TD*%
D18*
%TO.P,Q2,1,C*%
%TO.N,Net-(J6-Pin_1)*%
X86580000Y-67830000D03*
D19*
%TO.P,Q2,2,B*%
%TO.N,Net-(Q2-B)*%
X87850000Y-67830000D03*
%TO.P,Q2,3,E*%
%TO.N,GND*%
X89120000Y-67830000D03*
%TD*%
D11*
%TO.P,R5,1*%
%TO.N,Net-(Q1-B)*%
X80420000Y-32200000D03*
%TO.P,R5,2*%
%TO.N,Net-(A1-+5V)*%
X85500000Y-32200000D03*
%TD*%
D10*
%TO.P,C4,1*%
%TO.N,Net-(J6-Pin_1)*%
X80520000Y-59450000D03*
%TO.P,C4,2*%
%TO.N,Net-(AE1-A)*%
X83020000Y-59450000D03*
%TD*%
D20*
%TO.P,A1,1,TX1*%
%TO.N,unconnected-(A1-TX1-Pad1)*%
X61670000Y-28910000D03*
D21*
%TO.P,A1,2,RX1*%
%TO.N,unconnected-(A1-RX1-Pad2)*%
X61670000Y-31450000D03*
%TO.P,A1,3,~{RESET}*%
%TO.N,unconnected-(A1-~{RESET}-Pad3)*%
X61670000Y-33990000D03*
%TO.P,A1,4,GND*%
%TO.N,GND*%
X61670000Y-36530000D03*
%TO.P,A1,5,D2*%
%TO.N,unconnected-(A1-D2-Pad5)*%
X61670000Y-39070000D03*
%TO.P,A1,6,D3*%
%TO.N,Net-(A1-D3)*%
X61670000Y-41610000D03*
%TO.P,A1,7,D4*%
%TO.N,Net-(A1-D4)*%
X61670000Y-44150000D03*
%TO.P,A1,8,D5*%
%TO.N,unconnected-(A1-D5-Pad8)*%
X61670000Y-46690000D03*
%TO.P,A1,9,D6*%
%TO.N,unconnected-(A1-D6-Pad9)*%
X61670000Y-49230000D03*
%TO.P,A1,10,D7*%
%TO.N,unconnected-(A1-D7-Pad10)*%
X61670000Y-51770000D03*
%TO.P,A1,11,D8*%
%TO.N,Net-(A1-D8)*%
X61670000Y-54310000D03*
%TO.P,A1,12,D9*%
%TO.N,Net-(A1-D9)*%
X61670000Y-56850000D03*
%TO.P,A1,13,D10*%
%TO.N,Net-(A1-D10)*%
X61670000Y-59390000D03*
%TO.P,A1,14,MOSI*%
%TO.N,unconnected-(A1-MOSI-Pad14)*%
X61670000Y-61930000D03*
%TO.P,A1,15,MISO*%
%TO.N,unconnected-(A1-MISO-Pad15)*%
X61670000Y-64470000D03*
%TO.P,A1,16,SCK*%
%TO.N,unconnected-(A1-SCK-Pad16)*%
X76910000Y-64470000D03*
%TO.P,A1,17,3V3*%
%TO.N,unconnected-(A1-3V3-Pad17)*%
X76910000Y-61930000D03*
%TO.P,A1,18,AREF*%
%TO.N,unconnected-(A1-AREF-Pad18)*%
X76910000Y-59390000D03*
%TO.P,A1,19,A0*%
%TO.N,unconnected-(A1-A0-Pad19)*%
X76910000Y-56850000D03*
%TO.P,A1,20,A1*%
%TO.N,unconnected-(A1-A1-Pad20)*%
X76910000Y-54310000D03*
%TO.P,A1,21,A2*%
%TO.N,unconnected-(A1-A2-Pad21)*%
X76910000Y-51770000D03*
%TO.P,A1,22,A3*%
%TO.N,unconnected-(A1-A3-Pad22)*%
X76910000Y-49230000D03*
%TO.P,A1,23,SDA/A4*%
%TO.N,unconnected-(A1-SDA{slash}A4-Pad23)*%
X76910000Y-46690000D03*
%TO.P,A1,24,SCL/A5*%
%TO.N,unconnected-(A1-SCL{slash}A5-Pad24)*%
X76910000Y-44150000D03*
%TO.P,A1,25,A6*%
%TO.N,unconnected-(A1-A6-Pad25)*%
X76910000Y-41610000D03*
%TO.P,A1,26,A7*%
%TO.N,unconnected-(A1-A7-Pad26)*%
X76910000Y-39070000D03*
%TO.P,A1,27,+5V*%
%TO.N,Net-(A1-+5V)*%
X76910000Y-36530000D03*
%TO.P,A1,28,~{RESET}*%
%TO.N,unconnected-(A1-~{RESET}-Pad28)*%
X76910000Y-33990000D03*
%TO.P,A1,29,GND*%
%TO.N,GND*%
X76910000Y-31450000D03*
%TO.P,A1,30,VIN*%
%TO.N,unconnected-(A1-VIN-Pad30)*%
X76910000Y-28910000D03*
%TD*%
D22*
%TO.P,Y1,1,E*%
%TO.N,Net-(Q1-B)*%
X89960000Y-36221961D03*
D23*
%TO.P,Y1,2,B*%
%TO.N,GND*%
X91230000Y-37491961D03*
%TO.P,Y1,3,C*%
X92500000Y-36221961D03*
%TD*%
D11*
%TO.P,R6,1*%
%TO.N,Net-(Q2-B)*%
X80420000Y-35350000D03*
%TO.P,R6,2*%
%TO.N,Net-(A1-D3)*%
X85500000Y-35350000D03*
%TD*%
%TO.P,R1,1*%
%TO.N,Net-(U1-Vo_Adj)*%
X80520000Y-68900000D03*
%TO.P,R1,2*%
%TO.N,GND*%
X83060000Y-68900000D03*
%TD*%
%TO.P,R3,1*%
%TO.N,Net-(A1-D4)*%
X80420000Y-29050000D03*
%TO.P,R3,2*%
%TO.N,Net-(A1-+5V)*%
X85500000Y-29050000D03*
%TD*%
D24*
%TO.P,D1,1,K*%
%TO.N,Net-(D1-K)*%
X92780000Y-67310000D03*
D25*
%TO.P,D1,2,A*%
%TO.N,Net-(A1-D10)*%
X95320000Y-67310000D03*
%TD*%
D26*
%TO.P,J6,1,Pin_1*%
%TO.N,Net-(J6-Pin_1)*%
X87500000Y-31000000D03*
D27*
%TO.P,J6,2,Pin_2*%
X87500000Y-31500000D03*
%TD*%
D16*
%TO.P,J4,1,Pin_1*%
%TO.N,+12V*%
X104880000Y-34700000D03*
D17*
%TO.P,J4,2,Pin_2*%
%TO.N,GND*%
X104880000Y-36700000D03*
%TO.P,J4,3,Pin_3*%
%TO.N,A+*%
X104880000Y-38700000D03*
%TO.P,J4,4,Pin_4*%
%TO.N,B-*%
X104880000Y-40700000D03*
%TD*%
D28*
%TO.P,AE1,1,A*%
%TO.N,Net-(AE1-A)*%
X99500000Y-75000000D03*
D29*
%TO.P,AE1,2,Shield*%
%TO.N,GND*%
X96960000Y-77540000D03*
X102040000Y-77540000D03*
X96960000Y-72460000D03*
X102040000Y-72460000D03*
%TD*%
D10*
%TO.P,C3,1*%
%TO.N,Net-(J6-Pin_1)*%
X80520000Y-56300000D03*
%TO.P,C3,2*%
X83020000Y-56300000D03*
%TD*%
D30*
%TO.P,U3,1,VDD*%
%TO.N,Net-(A1-+5V)*%
X89510000Y-58250000D03*
D31*
%TO.P,U3,2,SDA*%
%TO.N,Net-(A1-D4)*%
X92050000Y-58250000D03*
%TO.P,U3,3,GND*%
%TO.N,GND*%
X94590000Y-58250000D03*
%TO.P,U3,4,GND*%
X97130000Y-58250000D03*
%TD*%
D32*
%TO.P,U1,1,GND*%
%TO.N,GND*%
X81500000Y-42640000D03*
D33*
%TO.P,U1,2,VI*%
%TO.N,+12V*%
X81500000Y-48990000D03*
%TO.P,U1,3,~{Inhibit}*%
%TO.N,unconnected-(U1-~{Inhibit}-Pad3)*%
X81500000Y-52160000D03*
%TO.P,U1,4,Vo_Adj*%
%TO.N,Net-(U1-Vo_Adj)*%
X97390000Y-52160000D03*
%TO.P,U1,5,VO*%
%TO.N,Net-(A1-+5V)*%
X97380000Y-42640000D03*
%TD*%
D34*
%TO.P,C2,1*%
%TO.N,Net-(A1-+5V)*%
X103044888Y-50500000D03*
D10*
%TO.P,C2,2*%
%TO.N,GND*%
X105044888Y-50500000D03*
%TD*%
D34*
%TO.P,C1,1*%
%TO.N,+12V*%
X102000000Y-45000000D03*
D10*
%TO.P,C1,2*%
%TO.N,GND*%
X104000000Y-45000000D03*
%TD*%
%TO.P,C6,1*%
%TO.N,+12V*%
X80520000Y-65750000D03*
%TO.P,C6,2*%
%TO.N,GND*%
X83020000Y-65750000D03*
%TD*%
D35*
%TO.N,GND*%
X106000000Y-38960273D02*
X106000000Y-38221000D01*
X102706000Y-39676000D02*
X105284273Y-39676000D01*
X104889500Y-36709500D02*
X104889500Y-37110500D01*
X104889500Y-37110500D02*
X104880000Y-37101000D01*
X106000000Y-38221000D02*
X104889500Y-37110500D01*
X101465000Y-38435000D02*
X102706000Y-39676000D01*
X105481040Y-36700000D02*
X104880000Y-36700000D01*
X104880000Y-36700000D02*
X104889500Y-36709500D01*
X105284273Y-39676000D02*
X106000000Y-38960273D01*
%TO.N,Net-(A1-D9)*%
X79419000Y-38456050D02*
X77366050Y-40509000D01*
X97530968Y-35226000D02*
X97791000Y-34965968D01*
X96515000Y-38435000D02*
X92297101Y-38435000D01*
X60569000Y-55749000D02*
X61670000Y-56850000D01*
X60569000Y-53853950D02*
X60569000Y-55749000D01*
X83480372Y-34024000D02*
X79419000Y-38085372D01*
X61213950Y-53209000D02*
X60569000Y-53853950D01*
X77366050Y-40509000D02*
X74826050Y-40509000D01*
X97791000Y-34965968D02*
X97791000Y-34284032D01*
X79419000Y-38085372D02*
X79419000Y-38456050D01*
X74826050Y-40509000D02*
X62126050Y-53209000D01*
X95506101Y-35226000D02*
X97530968Y-35226000D01*
X92297101Y-38435000D02*
X95506101Y-35226000D01*
X97530968Y-34024000D02*
X83480372Y-34024000D01*
X62126050Y-53209000D02*
X61213950Y-53209000D01*
X97791000Y-34284032D02*
X97530968Y-34024000D01*
%TO.N,Net-(A1-D8)*%
X82726001Y-47439000D02*
X80596050Y-47439000D01*
X65311000Y-50669000D02*
X61670000Y-54310000D01*
X77366050Y-50669000D02*
X65311000Y-50669000D01*
X95540001Y-34625000D02*
X82726001Y-47439000D01*
X80596050Y-47439000D02*
X77366050Y-50669000D01*
X96515000Y-34625000D02*
X95540001Y-34625000D01*
%TO.N,Net-(Q1-B)*%
X89949110Y-27999000D02*
X84621000Y-27999000D01*
X84621000Y-27999000D02*
X80420000Y-32200000D01*
X91000000Y-29049890D02*
X89949110Y-27999000D01*
X91000000Y-29362500D02*
X91000000Y-29049890D01*
%TO.N,+12V*%
X101264000Y-65374000D02*
X101990000Y-66100000D01*
X101700000Y-34700000D02*
X103000000Y-34700000D01*
X87159000Y-65374000D02*
X101264000Y-65374000D01*
X80520000Y-65750000D02*
X81770000Y-67000000D01*
X101324887Y-44324887D02*
X96659775Y-48990000D01*
X102690000Y-28750000D02*
X102690000Y-33400000D01*
X103000000Y-34700000D02*
X104880000Y-34700000D01*
X101625000Y-34625000D02*
X101700000Y-34700000D01*
X96659775Y-48990000D02*
X81500000Y-48990000D01*
X102299775Y-43350000D02*
X101324887Y-44324887D01*
X104880000Y-34700000D02*
X106700000Y-34700000D01*
X102690000Y-33400000D02*
X101465000Y-34625000D01*
X106700000Y-34700000D02*
X107000000Y-35000000D01*
X101465000Y-34625000D02*
X101625000Y-34625000D01*
X103500000Y-66100000D02*
X101990000Y-66100000D01*
X81770000Y-67000000D02*
X85533000Y-67000000D01*
X79419000Y-51071000D02*
X79419000Y-64649000D01*
X107000000Y-40000000D02*
X104751000Y-42249000D01*
X85533000Y-67000000D02*
X87159000Y-65374000D01*
X104751000Y-42249000D02*
X103400775Y-42249000D01*
X107000000Y-35000000D02*
X107000000Y-40000000D01*
X81500000Y-48990000D02*
X79419000Y-51071000D01*
X102000000Y-45000000D02*
X101324887Y-44324887D01*
X79419000Y-64649000D02*
X80520000Y-65750000D01*
X103400775Y-42249000D02*
X102299775Y-43350000D01*
%TO.N,A+*%
X103345000Y-37165000D02*
X104880000Y-38700000D01*
X101465000Y-37165000D02*
X103345000Y-37165000D01*
%TO.N,Net-(U2-DE)*%
X96515000Y-35895000D02*
X96515000Y-37165000D01*
%TO.N,B-*%
X101465000Y-35895000D02*
X101118032Y-35895000D01*
X101465000Y-35895000D02*
X101895000Y-35895000D01*
X100189000Y-36824032D02*
X100189000Y-38775968D01*
X100189000Y-38775968D02*
X102113032Y-40700000D01*
X102113032Y-40700000D02*
X104880000Y-40700000D01*
X101118032Y-35895000D02*
X100189000Y-36824032D01*
%TO.N,Net-(J6-Pin_1)*%
X92500000Y-29450000D02*
X92500000Y-29982752D01*
X89806000Y-30906000D02*
X89500000Y-30600000D01*
X89500000Y-30600000D02*
X89500000Y-29450000D01*
X92500000Y-29982752D02*
X91576752Y-30906000D01*
X96290000Y-28750000D02*
X92670000Y-28750000D01*
X89500000Y-29450000D02*
X88450000Y-30500000D01*
X87500000Y-30500000D02*
X87500000Y-31000000D01*
X91576752Y-30906000D02*
X89806000Y-30906000D01*
X88450000Y-30500000D02*
X87500000Y-30500000D01*
X92670000Y-28750000D02*
X92363922Y-28443922D01*
%TD*%
M02*
