%TF.GenerationSoftware,KiCad,Pcbnew,9.0.4*%
%TF.CreationDate,2026-01-27T05:17:12+01:00*%
%TF.ProjectId,weather station,77656174-6865-4722-9073-746174696f6e,rev?*%
%TF.SameCoordinates,Original*%
%TF.FileFunction,Copper,L2,Inr*%
%TF.FilePolarity,Positive*%
%FSLAX46Y46*%
G04 Gerber Fmt 4.6, Leading zero omitted, Abs format (unit mm)*
G04 Created by KiCad (PCBNEW 9.0.4) date 2026-01-27 05:17:12*
%MOMM*%
%LPD*%
G01*
G04 APERTURE LIST*
G04 Aperture macros list*
%AMRoundRect*
0 Rectangle with rounded corners*
0 $1 Rounding radius*
0 $2 $3 $4 $5 $6 $7 $8 $9 X,Y pos of 4 corners*
0 Add a 4 corners polygon primitive as box body*
4,1,4,$2,$3,$4,$5,$6,$7,$8,$9,$2,$3,0*
0 Add four circle primitives for the rounded corners*
1,1,$1+$1,$2,$3*
1,1,$1+$1,$4,$5*
1,1,$1+$1,$6,$7*
1,1,$1+$1,$8,$9*
0 Add four rect primitives between the rounded corners*
20,1,$1+$1,$2,$3,$4,$5,0*
20,1,$1+$1,$4,$5,$6,$7,0*
20,1,$1+$1,$6,$7,$8,$9,0*
20,1,$1+$1,$8,$9,$2,$3,0*%
G04 Aperture macros list end*
%TA.AperFunction,ComponentPad*%
%ADD10C,1.600000*%
%TD*%
%TA.AperFunction,ComponentPad*%
%ADD11C,1.400000*%
%TD*%
%TA.AperFunction,ComponentPad*%
%ADD12R,1.350000X1.350000*%
%TD*%
%TA.AperFunction,ComponentPad*%
%ADD13C,1.350000*%
%TD*%
%TA.AperFunction,ComponentPad*%
%ADD14R,1.050000X1.500000*%
%TD*%
%TA.AperFunction,ComponentPad*%
%ADD15O,1.050000X1.500000*%
%TD*%
%TA.AperFunction,ComponentPad*%
%ADD16R,1.600000X1.600000*%
%TD*%
%TA.AperFunction,ComponentPad*%
%ADD17O,1.600000X1.600000*%
%TD*%
%TA.AperFunction,ComponentPad*%
%ADD18O,1.600000X1.200000*%
%TD*%
%TA.AperFunction,ComponentPad*%
%ADD19C,1.200000*%
%TD*%
%TA.AperFunction,ComponentPad*%
%ADD20R,1.800000X1.800000*%
%TD*%
%TA.AperFunction,ComponentPad*%
%ADD21C,1.800000*%
%TD*%
%TA.AperFunction,ComponentPad*%
%ADD22R,0.850000X0.850000*%
%TD*%
%TA.AperFunction,ComponentPad*%
%ADD23C,0.850000*%
%TD*%
%TA.AperFunction,ComponentPad*%
%ADD24C,2.050000*%
%TD*%
%TA.AperFunction,ComponentPad*%
%ADD25C,2.250000*%
%TD*%
%TA.AperFunction,ComponentPad*%
%ADD26R,1.500000X1.500000*%
%TD*%
%TA.AperFunction,ComponentPad*%
%ADD27C,1.500000*%
%TD*%
%TA.AperFunction,ComponentPad*%
%ADD28RoundRect,0.625000X-0.625000X-0.625000X0.625000X-0.625000X0.625000X0.625000X-0.625000X0.625000X0*%
%TD*%
%TA.AperFunction,ComponentPad*%
%ADD29C,2.500000*%
%TD*%
%TA.AperFunction,ComponentPad*%
%ADD30RoundRect,0.250000X-0.550000X-0.550000X0.550000X-0.550000X0.550000X0.550000X-0.550000X0.550000X0*%
%TD*%
%TA.AperFunction,Conductor*%
%ADD31C,0.200000*%
%TD*%
G04 APERTURE END LIST*
D10*
%TO.N,Net-(J6-Pin_1)*%
%TO.C,C5*%
X80520000Y-62600000D03*
%TO.N,GND*%
X83020000Y-62600000D03*
%TD*%
D11*
%TO.N,A+*%
%TO.C,R7*%
X80420000Y-38500000D03*
%TO.N,B-*%
X85500000Y-38500000D03*
%TD*%
D12*
%TO.N,+12V*%
%TO.C,BT1*%
X103500000Y-66100000D03*
D13*
%TO.N,GND*%
X103500000Y-68100000D03*
%TD*%
D11*
%TO.N,Net-(D1-K)*%
%TO.C,R2*%
X80420000Y-25900000D03*
%TO.N,GND*%
X85500000Y-25900000D03*
%TD*%
D14*
%TO.N,Net-(J6-Pin_1)*%
%TO.C,Q2*%
X86580000Y-67830000D03*
D15*
%TO.N,Net-(Q2-B)*%
X87850000Y-67830000D03*
%TO.N,GND*%
X89120000Y-67830000D03*
%TD*%
D11*
%TO.N,Net-(Q1-B)*%
%TO.C,R5*%
X80420000Y-32200000D03*
%TO.N,Net-(A1-+5V)*%
X85500000Y-32200000D03*
%TD*%
D10*
%TO.N,Net-(J6-Pin_1)*%
%TO.C,C4*%
X80520000Y-59450000D03*
%TO.N,Net-(AE1-A)*%
X83020000Y-59450000D03*
%TD*%
D16*
%TO.N,unconnected-(A1-TX1-Pad1)*%
%TO.C,A1*%
X61670000Y-28910000D03*
D17*
%TO.N,unconnected-(A1-RX1-Pad2)*%
X61670000Y-31450000D03*
%TO.N,unconnected-(A1-~{RESET}-Pad3)*%
X61670000Y-33990000D03*
%TO.N,GND*%
X61670000Y-36530000D03*
%TO.N,unconnected-(A1-D2-Pad5)*%
X61670000Y-39070000D03*
%TO.N,Net-(A1-D3)*%
X61670000Y-41610000D03*
%TO.N,Net-(A1-D4)*%
X61670000Y-44150000D03*
%TO.N,unconnected-(A1-D5-Pad8)*%
X61670000Y-46690000D03*
%TO.N,unconnected-(A1-D6-Pad9)*%
X61670000Y-49230000D03*
%TO.N,unconnected-(A1-D7-Pad10)*%
X61670000Y-51770000D03*
%TO.N,Net-(A1-D8)*%
X61670000Y-54310000D03*
%TO.N,Net-(A1-D9)*%
X61670000Y-56850000D03*
%TO.N,Net-(A1-D10)*%
X61670000Y-59390000D03*
%TO.N,unconnected-(A1-MOSI-Pad14)*%
X61670000Y-61930000D03*
%TO.N,unconnected-(A1-MISO-Pad15)*%
X61670000Y-64470000D03*
%TO.N,unconnected-(A1-SCK-Pad16)*%
X76910000Y-64470000D03*
%TO.N,unconnected-(A1-3V3-Pad17)*%
X76910000Y-61930000D03*
%TO.N,unconnected-(A1-AREF-Pad18)*%
X76910000Y-59390000D03*
%TO.N,unconnected-(A1-A0-Pad19)*%
X76910000Y-56850000D03*
%TO.N,unconnected-(A1-A1-Pad20)*%
X76910000Y-54310000D03*
%TO.N,unconnected-(A1-A2-Pad21)*%
X76910000Y-51770000D03*
%TO.N,unconnected-(A1-A3-Pad22)*%
X76910000Y-49230000D03*
%TO.N,unconnected-(A1-SDA{slash}A4-Pad23)*%
X76910000Y-46690000D03*
%TO.N,unconnected-(A1-SCL{slash}A5-Pad24)*%
X76910000Y-44150000D03*
%TO.N,unconnected-(A1-A6-Pad25)*%
X76910000Y-41610000D03*
%TO.N,unconnected-(A1-A7-Pad26)*%
X76910000Y-39070000D03*
%TO.N,Net-(A1-+5V)*%
X76910000Y-36530000D03*
%TO.N,unconnected-(A1-~{RESET}-Pad28)*%
X76910000Y-33990000D03*
%TO.N,GND*%
X76910000Y-31450000D03*
%TO.N,unconnected-(A1-VIN-Pad30)*%
X76910000Y-28910000D03*
%TD*%
D18*
%TO.N,Net-(Q1-B)*%
%TO.C,Y1*%
X89960000Y-36221961D03*
D19*
%TO.N,GND*%
X91230000Y-37491961D03*
X92500000Y-36221961D03*
%TD*%
D11*
%TO.N,Net-(Q2-B)*%
%TO.C,R6*%
X80420000Y-35350000D03*
%TO.N,Net-(A1-D3)*%
X85500000Y-35350000D03*
%TD*%
%TO.N,Net-(U1-Vo_Adj)*%
%TO.C,R1*%
X80520000Y-68900000D03*
%TO.N,GND*%
X83060000Y-68900000D03*
%TD*%
%TO.N,Net-(A1-D4)*%
%TO.C,R3*%
X80420000Y-29050000D03*
%TO.N,Net-(A1-+5V)*%
X85500000Y-29050000D03*
%TD*%
D20*
%TO.N,Net-(D1-K)*%
%TO.C,D1*%
X92780000Y-67310000D03*
D21*
%TO.N,Net-(A1-D10)*%
X95320000Y-67310000D03*
%TD*%
D22*
%TO.N,Net-(J6-Pin_1)*%
%TO.C,J6*%
X87500000Y-31000000D03*
D23*
X87500000Y-31500000D03*
%TD*%
D12*
%TO.N,+12V*%
%TO.C,J4*%
X104880000Y-34700000D03*
D13*
%TO.N,GND*%
X104880000Y-36700000D03*
%TO.N,A+*%
X104880000Y-38700000D03*
%TO.N,B-*%
X104880000Y-40700000D03*
%TD*%
D24*
%TO.N,Net-(AE1-A)*%
%TO.C,AE1*%
X99500000Y-75000000D03*
D25*
%TO.N,GND*%
X96960000Y-77540000D03*
X102040000Y-77540000D03*
X96960000Y-72460000D03*
X102040000Y-72460000D03*
%TD*%
D10*
%TO.N,Net-(J6-Pin_1)*%
%TO.C,C3*%
X80520000Y-56300000D03*
X83020000Y-56300000D03*
%TD*%
D26*
%TO.N,Net-(A1-+5V)*%
%TO.C,U3*%
X89510000Y-58250000D03*
D27*
%TO.N,Net-(A1-D4)*%
X92050000Y-58250000D03*
%TO.N,GND*%
X94590000Y-58250000D03*
X97130000Y-58250000D03*
%TD*%
D28*
%TO.N,GND*%
%TO.C,U1*%
X81500000Y-42640000D03*
D29*
%TO.N,+12V*%
X81500000Y-48990000D03*
%TO.N,unconnected-(U1-~{Inhibit}-Pad3)*%
X81500000Y-52160000D03*
%TO.N,Net-(U1-Vo_Adj)*%
X97390000Y-52160000D03*
%TO.N,Net-(A1-+5V)*%
X97380000Y-42640000D03*
%TD*%
D30*
%TO.N,Net-(A1-+5V)*%
%TO.C,C2*%
X103044888Y-50500000D03*
D10*
%TO.N,GND*%
X105044888Y-50500000D03*
%TD*%
D30*
%TO.N,+12V*%
%TO.C,C1*%
X102000000Y-45000000D03*
D10*
%TO.N,GND*%
X104000000Y-45000000D03*
%TD*%
%TO.N,+12V*%
%TO.C,C6*%
X80520000Y-65750000D03*
%TO.N,GND*%
X83020000Y-65750000D03*
%TD*%
D31*
%TO.N,Net-(A1-D4)*%
X80420000Y-29050000D02*
X80420000Y-30580000D01*
X80420000Y-30580000D02*
X78111000Y-32889000D01*
X104475727Y-39676000D02*
X93500000Y-28700273D01*
X78111000Y-32889000D02*
X72931000Y-32889000D01*
X106145888Y-40585615D02*
X105236273Y-39676000D01*
X81927078Y-27542922D02*
X80420000Y-29050000D01*
X106145888Y-50956050D02*
X106145888Y-40585615D01*
X72931000Y-32889000D02*
X61670000Y-44150000D01*
X95787000Y-54513000D02*
X102588938Y-54513000D01*
X93500000Y-28305793D02*
X92737129Y-27542922D01*
X93500000Y-28700273D02*
X93500000Y-28305793D01*
X105236273Y-39676000D02*
X104475727Y-39676000D01*
X92050000Y-58250000D02*
X95787000Y-54513000D01*
X92737129Y-27542922D02*
X81927078Y-27542922D01*
X102588938Y-54513000D02*
X106145888Y-50956050D01*
%TO.N,Net-(A1-+5V)*%
X81170000Y-36530000D02*
X85500000Y-32200000D01*
X99833888Y-53711000D02*
X94049000Y-53711000D01*
X94049000Y-53711000D02*
X89510000Y-58250000D01*
X89510000Y-37944372D02*
X85500000Y-33934372D01*
X89510000Y-58250000D02*
X89510000Y-37944372D01*
X102972332Y-50572557D02*
X99833888Y-53711000D01*
X97380000Y-44980225D02*
X102972332Y-50572557D01*
X85500000Y-32200000D02*
X85500000Y-29050000D01*
X85500000Y-33934372D02*
X85500000Y-32200000D01*
X76910000Y-36530000D02*
X81170000Y-36530000D01*
X97380000Y-42640000D02*
X97380000Y-44980225D01*
%TO.N,Net-(Q2-B)*%
X75809000Y-36986050D02*
X75809000Y-36073950D01*
X76532950Y-35350000D02*
X80420000Y-35350000D01*
X77366050Y-37631000D02*
X76453950Y-37631000D01*
X78011000Y-36986050D02*
X77366050Y-37631000D01*
X81055050Y-36986050D02*
X78011000Y-36986050D01*
X76453950Y-37631000D02*
X75809000Y-36986050D01*
X87850000Y-43781000D02*
X81055050Y-36986050D01*
X75809000Y-36073950D02*
X76532950Y-35350000D01*
X87850000Y-67830000D02*
X87850000Y-43781000D01*
%TO.N,Net-(J6-Pin_1)*%
X86580000Y-67830000D02*
X86580000Y-67752950D01*
X86580000Y-67752950D02*
X81427050Y-62600000D01*
X81427050Y-62600000D02*
X80520000Y-62600000D01*
%TD*%
M02*
